<!-- <svg width="111" height="37" viewBox="0 0 111 37" fill="none" xmlns="http://www.w3.org/2000/svg">
<g clip-path="url(#clip0_303_3367)">
<path d="M14.7282 6.07669L17.9466 8.50813L15.9805 11.0097C17.3379 12.5457 17.8382 14.2983 17.8382 16.2295C17.8382 18.4092 17.0161 21.4843 14.1195 22.8068C17.0512 24.2727 17.7649 26.3823 17.7649 28.6352C17.7649 33.4981 14.0463 36.5 8.93505 36.5C3.82384 36.5 0 33.3898 0 28.6352H4.32413C4.32413 30.9233 6.43362 32.4242 8.93505 32.4242C11.4365 32.4242 13.4026 31.0667 13.4026 28.6352C13.4026 26.2038 11.1146 25.0948 8.93505 25.0948C3.4319 25.0948 0 21.7361 0 16.2295C0 10.7229 4.00229 7.29082 8.93823 7.29082C10.3339 7.29082 11.7615 7.46927 12.9788 8.29144L14.7282 6.07669ZM4.32413 16.2295C4.32413 19.3046 6.39857 21.1274 8.93505 21.1274C11.4365 21.1274 13.5109 19.2696 13.5109 16.2295C13.5109 13.1894 11.4397 11.2614 8.93823 11.2614C6.39856 11.2614 4.32413 13.1543 4.32413 16.2295Z" fill="#112211"/>
<path d="M50.5673 0.5V25.49H46.2432V0.5H50.5673Z" fill="#112211"/>
<path d="M69.9987 16.6948C69.9987 21.7711 66.5317 25.882 60.8119 25.882C55.0921 25.882 51.6602 21.7711 51.6602 16.6948C51.6602 11.6534 55.1622 7.50754 60.7768 7.50754C66.3915 7.50754 69.9987 11.6534 69.9987 16.6948ZM56.0193 16.6948C56.0193 19.3748 57.6285 21.8795 60.8087 21.8795C63.9889 21.8795 65.5981 19.3779 65.5981 16.6948C65.5981 14.0498 63.7403 11.475 60.8087 11.475C57.6636 11.475 56.0193 14.0498 56.0193 16.6948Z" fill="#112211"/>
<path d="M75.4512 0.5V10.2608C76.4869 8.43804 79.3834 7.43742 81.2412 7.43742C86.3874 7.43742 90.2145 10.5827 90.2145 16.6597C90.2145 22.4499 86.3173 25.882 81.136 25.882C78.9915 25.882 76.8119 25.1681 75.4512 23.0586L75.1645 25.49H71.0889V0.5H75.4512ZM75.7348 16.6597C75.7348 19.84 78.0929 21.8444 80.846 21.8444C83.6343 21.8444 85.8521 19.7348 85.8521 16.6597C85.8521 13.4794 83.6343 11.5132 80.846 11.5132C78.0961 11.51 75.7348 13.5845 75.7348 16.6597Z" fill="#112211"/>
<path d="M96.6982 19.7317C97.7115 21.6819 100.031 22.5136 102.922 21.462C104.432 20.9107 106.207 19.6201 106.793 18.304L110.356 19.9356C109.269 22.3862 106.733 24.2982 104.212 25.2159C98.5018 27.2937 93.8239 25.0024 91.8929 19.6934C90.0575 14.6553 92.1638 9.77963 97.5395 7.82301C103.081 5.80584 107.791 7.97278 109.632 15.0249L96.6982 19.7317ZM104.467 13.0619C103.415 11.0097 101.344 10.5476 98.9925 11.4017C96.7747 12.2079 95.3535 13.9446 95.5319 16.3123L104.467 13.0619Z" fill="#112211"/>
<path fill-rule="evenodd" clip-rule="evenodd" d="M39.7626 12.4898C38.3489 9.54026 35.4017 7.50754 31.4702 7.50754C25.8555 7.50754 22.3535 11.6534 22.3535 16.6948C22.3535 19.9132 23.733 22.7436 26.2006 24.3843C26.3412 24.2791 26.4258 24.2108 26.4258 24.2108C27.6566 23.4077 28.8573 22.5624 30.0258 21.6765C27.8244 21.0287 26.7127 18.9223 26.7127 16.6948C26.7127 14.0498 28.3601 11.475 31.5021 11.475C34.269 11.475 36.0793 13.7686 36.274 16.2501C37.4868 15.0464 38.6507 13.792 39.7626 12.4898ZM31.0601 25.8736C34.5418 23.4057 37.7611 20.5866 40.6652 17.463C40.3328 22.1795 36.9335 25.882 31.5052 25.882C31.3553 25.882 31.2069 25.8791 31.0601 25.8736Z" fill="#8DD3BB"/>
<path d="M43.3179 5.03785C38.8631 3.39989 35.6607 6.92437 35.6607 6.92437L38.6974 8.68979C39.835 8.03652 40.3417 8.67067 40.4723 9.01802C40.5648 9.26339 40.4405 9.53108 40.3417 9.67766L39.6024 10.6114C35.6129 15.4233 30.9223 19.6042 25.6868 23.0203C25.6868 23.0203 24.1063 24.295 23.265 24.3141C22.5576 24.3301 22.2422 23.7341 22.838 22.8801L21.3722 19.5723C21.3722 19.5723 17.558 22.0707 18.2972 26.4619C18.6095 28.3166 20.3525 29.6359 22.2039 29.3013C23.1503 29.1324 24.3198 28.6703 25.7505 27.7239L28.3826 26.0031C33.6181 22.5806 38.3119 18.3869 42.2982 13.5686L43.2032 12.4756C44.567 10.9237 45.1789 9.6458 45.386 8.63562C45.7046 7.09007 44.7901 5.57959 43.3179 5.03785Z" fill="#8DD3BB"/>
</g>
<defs>
<clipPath id="clip0_303_3367">
<rect width="110.353" height="36" fill="white" transform="translate(0 0.5)"/>
</clipPath>
</defs>
</svg> -->




<svg xmlns="http://www.w3.org/2000/svg" fill="none" viewBox="0 0 24 24" strokeWidth={1.5} stroke="currentColor" className="w-6 h-6 -rotate-90">
  <path strokeLinecap="round" strokeLinejoin="round" d="M6 12L3.269 3.126A59.768 59.768 0 0121.485 12 59.77 59.77 0 013.27 20.876L5.999 12zm0 0h7.5" />
</svg>

